<svg width="250" height="100" viewBox="0 0 250 100" fill="none" xmlns="http://www.w3.org/2000/svg">
<g clip-path="url(#clip0_3_48)">
<path d="M90.2934 48.0402C88.0614 47.0306 85.7296 45.4936 84.2793 43.4389C82.7875 41.3272 81.5481 38.8612 81.2166 36.3303C81.1438 35.7767 81.0848 35.2164 81.0396 34.6496C80.9969 34.1065 80.9887 33.5567 81.0151 33.0004C81.2801 27.587 83.5912 23.376 87.9484 20.3675C88.2774 20.1419 88.8921 19.8197 89.7924 19.4012C93.4013 17.7244 97.0892 17.5526 100.856 18.8856C102.045 19.3067 103.134 19.8571 104.121 20.5368C104.643 20.8963 104.959 21.1278 105.068 21.2315C105.509 21.6487 105.983 22.43 105.835 23.0834C105.647 23.9074 105.13 24.4151 104.282 24.6067C103.776 24.7208 103.433 24.6087 102.964 24.3213C102.418 23.9854 101.827 23.6378 101.192 23.2783C98.9087 21.9846 96.4809 21.5687 93.9079 22.0305C91.1825 22.5206 89.0088 23.9749 87.2119 26.2067C84.5373 29.5288 83.9497 34.382 85.6354 38.3594C86.775 41.0458 89.2104 43.6082 92.0225 44.6198C94.7725 45.6103 97.3994 45.5966 99.9033 44.5784C101.129 44.0785 102.154 43.3051 103.335 42.7816C103.883 42.5376 104.923 42.5002 105.243 43.1673C105.421 43.54 105.58 43.9769 105.72 44.4781C105.923 45.2121 105.277 45.8616 104.718 46.2395C104.258 46.5517 103.776 46.8614 103.273 47.1684C100.822 48.6654 98.2137 49.3477 95.4487 49.2151C93.5413 49.1246 91.8229 48.733 90.2934 48.0402Z" fill="#4CB7EC"/>
<path d="M160.108 47.7014C160.052 47.4436 159.978 47.2409 159.98 46.9595C160.009 43.8539 160.021 40.787 160.014 37.7589C160.009 35.8125 160.029 34.484 159.259 32.9608C159.018 32.4845 158.747 32.1309 158.447 31.9C157.52 31.1876 156.291 30.5873 155.125 30.7703C152.465 31.1856 151.154 33.1635 151.164 35.8833C151.179 39.5295 151.189 43.152 151.196 46.7509C151.196 47.2685 151.075 47.6444 150.777 48.0557C150.504 48.4336 150.258 48.9 149.74 48.9C149.359 48.8987 149.017 48.8646 148.713 48.7976C147.745 48.5851 147.468 47.3334 147.472 46.4734C147.486 43.0752 147.497 39.6462 147.506 36.1864C147.507 35.4176 147.455 34.8016 147.351 34.3384C147.21 33.7067 146.782 32.4333 146.208 31.9905C145.244 31.2466 144.091 30.6247 142.855 30.7585C142.293 30.8189 141.841 30.9252 141.501 31.0774C141.197 31.2151 140.807 31.4651 140.331 31.8272C139.275 32.6321 138.834 34.0609 138.832 35.4051C138.824 39.1142 138.821 42.6698 138.823 46.0719C138.823 46.4485 138.787 46.8289 138.717 47.2134C138.5 48.3844 137.67 49.0771 136.508 48.835C136.039 48.7379 135.591 48.4185 135.163 47.8766C135.129 47.8333 135.11 47.7784 135.11 47.7211C135.129 43.4649 135.131 39.2257 135.116 35.0036C135.109 33.4607 135.546 31.9636 136.427 30.5125C137.134 29.3461 138.076 28.4572 139.254 27.8458C140.634 27.1308 142.028 26.8041 143.437 26.8657C143.97 26.8894 144.576 26.9878 145.255 27.1609C146.75 27.5447 148.067 28.452 149.101 29.5876C149.129 29.6185 149.163 29.6432 149.201 29.6604C149.238 29.6776 149.279 29.6868 149.319 29.6875C149.36 29.6883 149.401 29.6805 149.439 29.6647C149.477 29.6489 149.511 29.6253 149.54 29.5954C150.764 28.33 152.056 27.4483 153.774 27.0724C155.351 26.7286 156.93 26.829 158.509 27.3735C159.72 27.7907 160.766 28.7393 161.698 29.7824C163.086 31.3391 163.661 33.4331 163.672 35.5074C163.69 38.5697 163.694 41.937 163.685 45.6094C163.683 46.8375 163.666 47.8372 162.664 48.6599C162.455 48.8318 162.211 48.902 161.934 48.8705C161.139 48.7799 160.325 48.6579 160.108 47.7014Z" fill="#4CB7EC"/>
<path d="M227.168 35.6777C227.507 35.78 227.809 35.9158 228.167 35.9906C230.653 36.5101 232.552 36.9628 234.424 38.061C235.185 38.5077 235.688 39.1316 236.2 39.8558C236.955 40.9245 237.149 42.4556 236.893 43.7014C236.59 45.1774 235.998 46.2756 235.117 46.9959C231.813 49.6921 227.02 49.3477 223.249 47.726C222.727 47.5017 222.162 47.2183 221.751 46.8168C221.03 46.1142 219.8 45.4411 220.512 44.1698C220.979 43.3353 221.618 42.68 222.635 42.8965C222.915 42.9568 223.182 43.0959 223.437 43.3137C225.935 45.4628 228.849 46.0768 231.943 44.835C232.837 44.4755 233.312 43.8339 233.369 42.9102C233.416 42.1466 232.906 41.1803 232.164 40.7966C231.885 40.6529 231.651 40.4679 231.357 40.3478C230.169 39.8637 228.975 39.6138 227.773 39.2536C226.923 39.0004 226.121 38.7511 225.366 38.5057C224.9 38.3536 224.28 38.0164 223.505 37.4942C222.026 36.497 221.274 35.0577 221.248 33.1763C221.228 31.6392 221.804 30.1455 223.043 29.2559C224.343 28.3231 225.631 27.7582 226.907 27.5614C228.243 27.3541 229.587 27.3627 230.941 27.587C232.705 27.8783 234.212 28.6006 235.462 29.7538C236.157 30.3954 237.191 31.8911 236.093 32.7394C235.317 33.3396 234.288 33.2058 233.55 32.641C231.312 30.9288 228.737 30.3049 226.091 31.3952C225.036 31.8301 224.571 32.9185 224.987 34.0107C225.328 34.9023 226.289 35.41 227.168 35.6777Z" fill="#4CB7EC"/>
<path d="M201.312 48.192C201.054 48.0726 200.806 47.927 200.57 47.7551C199.854 47.2368 199.226 46.7251 198.685 46.22C198.262 45.8264 197.809 45.2609 197.327 44.5236C196.649 43.491 196.231 42.3331 196.074 41.05C195.964 40.1552 195.908 39.2853 195.907 38.4403C195.904 35.4108 195.903 32.3486 195.903 29.2535C195.903 28.646 196.149 28.1842 196.641 27.868C197.582 27.2631 198.396 27.3406 199.084 28.1002C199.397 28.4466 199.558 28.9603 199.566 29.6412C199.595 32.0133 199.597 34.6453 199.572 37.537C199.568 37.9831 199.582 38.4206 199.613 38.8497C199.672 39.6153 199.666 40.4714 199.934 41.1739C200.656 43.0633 201.988 44.3169 203.93 44.9349C204.56 45.1356 205.218 45.1848 205.906 45.0825C208.32 44.723 209.943 43.3611 210.775 40.9968C211.182 39.8435 211.24 38.3537 211.235 37.0824C211.225 34.3862 211.229 31.6748 211.246 28.9484C211.254 27.7558 212.87 27.1536 213.746 27.6318C214.563 28.0786 214.759 28.7654 214.861 29.6432C214.896 29.9423 214.914 30.231 214.915 30.5091C214.928 33.0807 214.929 35.645 214.919 38.2022C214.915 39.0307 214.829 39.8494 214.736 40.6563C214.388 43.7422 212.357 46.3263 209.886 47.8673C207.502 49.3571 203.882 49.3807 201.312 48.192Z" fill="#4CB7EC"/>
<path fill-rule="evenodd" clip-rule="evenodd" d="M125.444 46.6609C125.66 46.493 125.789 46.5474 125.832 46.8243C125.861 47.008 125.89 47.2126 125.919 47.4383C126.058 48.5384 126.768 49.0364 127.766 48.9576C129.313 48.8353 129.309 47.2023 129.305 45.9381C129.305 45.9012 129.305 45.8646 129.305 45.8284C129.301 43.4458 129.302 40.9037 129.307 38.2023C129.31 36.5255 129.008 35.0193 128.401 33.6836C127.776 32.3086 126.948 31.1488 125.917 30.2041C123.451 27.9422 120.523 27.0697 117.136 27.5866C116.473 27.6877 115.812 27.8904 115.154 28.1948C112.071 29.6216 109.56 32.4024 108.952 35.8485C108.5 38.403 108.684 41.0697 109.897 43.3074C110.639 44.6791 111.589 45.9524 112.907 46.8735L112.933 46.8917C113.891 47.5591 114.874 48.2439 115.938 48.5345C119.456 49.4923 122.625 48.8678 125.444 46.6609ZM115.746 44.4169C112.454 42.5574 111.23 38.2597 113.011 34.8177C114.792 31.3757 118.905 30.0928 122.196 31.9524C125.488 33.8119 126.712 38.1096 124.931 41.5516C123.15 44.9936 119.037 46.2765 115.746 44.4169Z" fill="#4CB7EC"/>
<path fill-rule="evenodd" clip-rule="evenodd" d="M173.567 47.2908C173.565 47.1032 173.58 46.9142 173.612 46.724C173.639 46.5626 173.721 46.5226 173.857 46.604C174.275 46.8572 174.658 47.1563 175.007 47.5014C175.182 47.6726 175.388 47.7532 175.597 47.8351C175.748 47.8945 175.902 47.9546 176.047 48.0505C176.277 48.2014 176.548 48.328 176.859 48.4303C179.124 49.1821 181.374 49.2011 183.608 48.4874C186.648 47.5152 189.791 44.0671 190.368 40.7707C190.857 37.9721 190.663 35.0259 189.117 32.5777C187.767 30.4384 186.216 29.0569 183.951 28.1201C183.187 27.8052 182.335 27.6071 181.395 27.5257C180.38 27.4391 179.456 27.4647 178.622 27.6025C176.573 27.9436 174.807 28.8574 173.324 30.344C172.45 31.2197 171.683 32.1172 171.124 33.2862C170.392 34.8173 170.017 36.4213 170.001 38.0981C169.938 44.7501 169.927 50.6135 169.967 55.6885C169.975 56.5964 170.29 57.2806 170.913 57.7411C171.379 58.0862 171.918 58.0862 172.533 57.7411C173.491 57.1999 173.559 56.4068 173.567 55.3972C173.584 52.6039 173.584 49.9017 173.567 47.2908ZM187.081 38.2353C187.081 42.1406 184.051 45.3064 180.313 45.3064C176.576 45.3064 173.546 42.1406 173.546 38.2353C173.546 34.3299 176.576 31.1641 180.313 31.1641C184.051 31.1641 187.081 34.3299 187.081 38.2353Z" fill="#4CB7EC"/>
<path d="M85.1138 71.0649C88.7318 71.166 92.9408 70.9366 96.4889 71.1058C96.9924 71.1291 97.4473 71.3352 97.6475 71.8115C98.061 72.79 97.8964 73.6111 97.1537 74.2747C96.9658 74.4419 96.7487 74.5423 96.5025 74.576C95.6613 74.6914 94.7988 74.7484 93.9148 74.7471C91.022 74.7419 88.1538 74.7341 85.3102 74.7238C85.2431 74.7237 85.1787 74.7498 85.1308 74.7963C85.0828 74.8428 85.0551 74.9061 85.0536 74.9726C84.9667 78.0508 84.97 81.1964 85.0633 84.4093C85.0724 84.6945 85.0698 84.9952 85.0555 85.3114C85.0426 85.6121 84.9972 85.9134 84.9194 86.2154C84.8235 86.59 84.7017 86.9289 84.5539 87.2322C84.4425 87.4616 84.2714 87.6282 84.0407 87.7318C83.1762 88.122 82.3882 88.0461 81.6767 87.5044C81.0118 86.997 81.0118 85.8616 81.0137 85.0451C81.0241 77.1299 81.0195 69.5408 81.0001 62.2775C80.9975 61.207 81.0591 60.2297 81.1848 59.3458C81.2509 58.8792 81.4407 58.5455 81.7544 58.3446C82.1899 58.0646 83.0161 58.016 83.5333 58.0141C88.8887 58.0102 94.4067 58.0109 100.087 58.016C101.046 58.018 102.105 58.3738 102.245 59.4294C102.358 60.2706 102.108 60.9167 101.495 61.3677C101.276 61.531 100.995 61.6107 100.651 61.6068C100.111 61.6016 99.5819 61.6133 99.0648 61.6418C98.5762 61.6677 98.0688 61.6826 97.5426 61.6865C93.4716 61.715 89.4006 61.7157 85.3296 61.6885C85.156 61.6872 85.0685 61.7734 85.0672 61.947L85.0127 70.9619C85.0114 71.0293 85.0451 71.0636 85.1138 71.0649Z" fill="#FF3FD1"/>
<path d="M110.232 81.787C110.335 82.6055 110.588 83.3462 111.278 83.8361C112.322 84.5827 114.015 83.7545 114.538 85.1523C115.108 86.6765 114.323 87.8138 112.791 87.9635C109.462 88.2862 107.16 86.2254 106.56 83.0468C106.367 82.0255 106.269 81.0405 106.268 80.0918C106.258 73.6243 106.256 66.98 106.262 60.1587C106.264 58.6151 107.407 57.6528 108.982 58.1174C109.867 58.3779 110.114 59.2139 110.112 60.0382C110.096 66.2542 110.092 72.8337 110.098 79.7768C110.099 80.4197 110.144 81.0897 110.232 81.787Z" fill="#FF3FD1"/>
<path d="M191.522 87.7182C190.998 87.9496 189.59 88.0915 189.293 87.3489C189.272 87.2957 189.239 87.2504 189.195 87.2128C189.017 87.065 188.924 86.8706 188.917 86.6295C188.834 83.3505 188.849 80.2263 188.96 77.257C189.09 73.7362 191.025 70.5536 193.826 68.4948C194.901 67.7055 196.096 67.1488 197.411 66.8248C198.16 66.6395 199.015 66.5028 199.976 66.4146C200.474 66.3693 200.947 66.4548 201.393 66.6712C202.25 67.0853 202.581 68.0574 202.186 68.9167C201.729 69.9101 201.156 69.8946 200.205 70.0268C198.961 70.1979 197.631 70.4953 196.564 71.1213C195.801 71.5665 194.995 72.3306 194.411 72.9663C193.415 74.0498 192.82 75.3835 192.627 76.9673C192.565 77.4818 192.53 78.7455 192.524 80.7583C192.519 82.578 192.513 84.377 192.508 86.1552C192.507 86.9069 192.178 87.4279 191.522 87.7182Z" fill="#FF3FD1"/>
<path d="M149.467 82.3409C149.484 82.3522 149.504 82.3589 149.525 82.3605C149.545 82.3621 149.566 82.3584 149.585 82.3499C149.604 82.3414 149.621 82.3283 149.633 82.3118C149.646 82.2953 149.654 82.2759 149.657 82.2554C149.692 82.0279 149.727 81.7888 149.851 81.5905C150.155 81.1181 150.306 80.5756 150.561 80.0643C151.414 78.3548 152.227 76.5785 153.001 74.7355C153.794 72.8458 154.848 71.0825 155.61 69.2065C156.129 67.9253 156.734 66.6558 158.409 67.1982C158.878 67.3498 159.313 67.5598 159.467 68.0692C159.629 68.6057 159.619 69.0976 159.438 69.5447C159.268 69.9608 159.059 70.3989 158.812 70.859C158.244 71.9153 157.305 73.9054 155.993 76.8293C155.678 77.5318 155.36 78.222 155.038 78.8998C153.727 81.6566 152.354 84.4166 150.921 87.1798C150.726 87.5544 150.44 87.7812 150.061 87.8602C148.751 88.1363 148.183 87.5764 147.643 86.5577C146.677 84.738 145.971 82.8269 145.042 81.0403C143.757 78.5726 142.507 75.9344 141.29 73.1258C140.841 72.0902 140.278 70.9335 139.6 69.6556C139.351 69.1851 139.318 68.6718 139.499 68.1158C139.682 67.5559 140.31 67.3265 140.805 67.1321C141.028 67.044 141.262 67.0491 141.505 67.1476C141.914 67.3148 142.446 67.4568 142.668 67.8747C143.631 69.7022 144.453 71.4564 145.133 73.1375C145.477 73.9851 145.885 74.8625 146.358 75.7698C147.383 77.7334 148.276 79.7364 149.037 81.7791C149.13 82.0305 149.273 82.2178 149.467 82.3409Z" fill="#FF3FD1"/>
<path fill-rule="evenodd" clip-rule="evenodd" d="M179.823 85.039C181.82 83.0417 182.942 80.3329 182.942 77.5084C182.942 74.6839 181.82 71.975 179.823 69.9778C177.826 67.9806 175.117 66.8585 172.292 66.8585C169.468 66.8585 166.759 67.9806 164.762 69.9778C162.764 71.975 161.642 74.6839 161.642 77.5084C161.642 80.3329 162.764 83.0417 164.762 85.039C166.759 87.0362 169.468 88.1582 172.292 88.1582C175.117 88.1582 177.826 87.0362 179.823 85.039ZM179.289 77.4762C179.289 81.3437 176.153 84.4789 172.286 84.4789C168.418 84.4789 165.283 81.3437 165.283 77.4762C165.283 73.6087 168.418 70.4735 172.286 70.4735C176.153 70.4735 179.289 73.6087 179.289 77.4762Z" fill="#FF3FD1"/>
<path fill-rule="evenodd" clip-rule="evenodd" d="M133.868 85.7642C133.892 85.7878 133.909 85.8169 133.919 85.8489C133.99 86.0809 134.044 86.3057 134.081 86.5235C134.305 87.826 135.111 88.3289 136.499 88.0321C136.986 87.9284 137.294 87.6044 137.421 87.0601C137.537 86.5637 137.597 86.077 137.599 85.6C137.612 83.4602 137.618 81.0573 137.617 78.3913C137.615 76.2041 137.403 73.7818 136.104 71.9465C135.073 70.491 133.826 69.2695 132.366 68.2819C131.946 67.998 131.487 67.7615 130.989 67.5723C129.044 66.8322 127.025 66.652 124.933 67.0318C123.324 67.3234 121.742 68.0855 120.188 69.3181C118.529 70.6349 117.398 72.3561 116.795 74.4816C116.038 77.1542 116.27 79.7716 117.489 82.3339C117.839 83.0701 118.315 83.7615 118.916 84.4083C120.036 85.6175 121.185 86.6732 122.731 87.2992C124.972 88.2077 127.359 88.362 129.893 87.7619C131.302 87.4275 132.506 86.6829 133.596 85.7536C133.622 85.732 133.652 85.717 133.684 85.7101C133.717 85.7031 133.751 85.7044 133.783 85.7139C133.815 85.7233 133.844 85.7406 133.868 85.7642ZM133.987 77.5038C133.987 81.3626 130.859 84.4909 127 84.4909C123.141 84.4909 120.013 81.3626 120.013 77.5038C120.013 73.6449 123.141 70.5166 127 70.5166C130.859 70.5166 133.987 73.6449 133.987 77.5038Z" fill="#FF3FD1"/>
<path d="M21.01 93.5027L21.0095 92.9254C21.0072 90.4222 21.0085 89.7319 21 77.0252L60.9689 58.7284C60.9895 80.693 61 93.3957 61 93.5027C61 93.7125 60.1113 93.7125 59.0611 95.0415C58.0108 96.3705 58.4148 97 58.0108 97H24.1607C23.9183 97 24.3223 96.3005 23.0297 95.0415C21.7371 93.7825 21.01 93.7125 21.01 93.5027Z" fill="url(#paint0_linear_3_48)"/>
<path d="M60.9533 26.4491L21 44.7461C21.0017 55.2394 21.0076 67.631 21.0145 77.984L60.9834 59.6872C60.9718 47.2741 60.9608 34.5111 60.9533 26.4491Z" fill="url(#paint1_linear_3_48)"/>
<path fill-rule="evenodd" clip-rule="evenodd" d="M41.7077 2.27266C45.1008 1.43334 51.8006 2.44351 46.959 6.53929C46.959 6.53929 59.2387 7.02889 59.4003 7.44856C59.4684 7.62559 59.4273 7.79017 59.3789 7.9843C59.3124 8.2504 59.2321 8.57201 59.4003 9.0573C59.5547 9.50305 59.9781 9.81071 60.3411 10.0746C60.6617 10.3076 60.9353 10.5064 60.9353 10.736C60.9353 10.7617 60.9362 11.6428 60.9377 13.032C60.9421 16.9884 60.9509 25.0664 60.9548 29.2456L21.0015 47.5426C20.9991 32.3029 20.9957 10.8675 21.0261 10.736C21.0589 10.5939 21.2981 10.4263 21.5896 10.222C22.0154 9.92367 22.5529 9.5471 22.7222 9.0573C22.8731 8.62109 22.651 8.23743 22.4733 7.93036C22.3148 7.65654 22.1916 7.44363 22.3994 7.30867C22.8404 7.02236 37.1836 6.53928 37.1836 6.53928C37.6758 5.91518 38.0235 5.36287 38.3302 4.8755C39.1269 3.60986 39.6479 2.78218 41.7077 2.27266ZM44.0831 3.59794C43.1944 3.59794 40.1396 4.07547 39.8973 5.13027C39.6033 6.4098 44.013 6.17209 44.4162 6.06725C45.2275 5.85653 47.1668 5.19849 46.845 4.49863C46.5219 3.7957 44.9718 3.59794 44.0831 3.59794Z" fill="url(#paint2_linear_3_48)"/>
</g>
<defs>
<linearGradient id="paint0_linear_3_48" x1="61.0002" y1="60.0062" x2="24.9768" y2="97.3575" gradientUnits="userSpaceOnUse">
<stop stop-color="#FFB54D"/>
<stop offset="1" stop-color="#FF7D6A"/>
</linearGradient>
<linearGradient id="paint1_linear_3_48" x1="60.9835" y1="41.626" x2="46.1236" y2="78.1261" gradientUnits="userSpaceOnUse">
<stop stop-color="#FF579C"/>
<stop offset="1" stop-color="#C01597"/>
</linearGradient>
<linearGradient id="paint2_linear_3_48" x1="59.8962" y1="12.8663" x2="45.738" y2="43.3606" gradientUnits="userSpaceOnUse">
<stop stop-color="#4CB7EC"/>
<stop offset="1" stop-color="#5062E8"/>
</linearGradient>
<clipPath id="clip0_3_48">
<rect width="250" height="100" fill="white"/>
</clipPath>
</defs>
</svg>
