<svg width="136" height="138" viewBox="0 0 136 138" fill="none" xmlns="http://www.w3.org/2000/svg">
<path fill-rule="evenodd" clip-rule="evenodd" d="M126.374 24.0851L72.4497 78.1078L66.5125 72.1609L120.441 18.1381C122.081 16.4951 124.737 16.4951 126.374 18.1381C128.014 19.7812 128.014 22.4421 126.374 24.0851ZM57.613 92.9773C57.0647 92.4296 51.6757 87.0304 51.6757 87.0304L60.5795 78.1078L66.5125 84.0547L57.613 92.9773ZM48.7092 113.785C44.5272 117.722 25.84 126.498 14.8367 117.99C14.8367 117.99 18.666 114.958 21.5645 108.873C28.4877 90.213 45.7427 92.9773 45.7427 92.9773L51.6757 98.9199C51.7352 98.9803 56.1085 106.825 48.7092 113.785ZM132.311 12.1912C127.394 7.26634 119.421 7.26634 114.503 12.1912L41.497 85.3355C32.5592 85.1285 20.179 88.3413 14.8367 106.1C10.7525 115.493 0 115.019 0 115.019C22.3252 140.147 48.637 125.908 54.6423 119.732C59.925 114.307 60.6858 107.666 60.1205 102.353L132.311 30.0321C137.228 25.1029 137.228 17.1161 132.311 12.1912Z" fill="black"/>
</svg>
