<svg width="128" height="128" viewBox="0 0 128 128" fill="none" xmlns="http://www.w3.org/2000/svg">
<path d="M38.013 121.898L38.0124 121.139C38.0094 117.845 38.0111 116.937 38 100.217L90.0922 76.1426C90.119 105.043 90.1327 121.757 90.1327 121.898C90.1327 122.174 88.9744 122.174 87.6056 123.923C86.2369 125.672 86.7633 126.5 86.2369 126.5L42.1194 126.5C41.8035 126.5 42.33 125.58 40.6453 123.923C38.9606 122.266 38.013 122.174 38.013 121.898Z" fill="url(#paint0_linear_121_42)"/>
<path d="M90.0718 33.6699L38 57.7449C38.0022 71.5519 38.0099 87.8566 38.019 101.479L90.1111 77.4043C90.096 61.0712 90.0816 44.2778 90.0718 33.6699Z" fill="url(#paint1_linear_121_42)"/>
<path fill-rule="evenodd" clip-rule="evenodd" d="M64.9887 1.85876C69.411 0.754392 78.1429 2.08356 71.8328 7.47275C71.8328 7.47275 87.8372 8.11696 88.0478 8.66916C88.1366 8.90209 88.083 9.11864 88.0199 9.37408C87.9333 9.72421 87.8286 10.1474 88.0478 10.7859C88.2491 11.3724 88.8008 11.7772 89.274 12.1244C89.6918 12.431 90.0483 12.6926 90.0483 12.9947C90.0483 13.0284 90.0496 14.178 90.0515 15.9925C90.0572 21.1898 90.0687 31.8423 90.0738 37.3495L38.002 61.4244C37.9988 41.3723 37.9944 13.1678 38.034 12.9947C38.0768 12.8077 38.3885 12.5872 38.7684 12.3184C39.3234 11.9259 40.0239 11.4304 40.2446 10.7859C40.4412 10.212 40.1518 9.70714 39.9202 9.3031C39.7136 8.94282 39.553 8.66267 39.8239 8.48509C40.3986 8.10837 59.0924 7.47274 59.0924 7.47274C59.7338 6.65156 60.187 5.92483 60.5868 5.28355C61.6251 3.61823 62.3042 2.52919 64.9887 1.85876ZM68.0846 3.60261C66.9264 3.60261 62.9451 4.23094 62.6292 5.61883C62.246 7.30242 67.9933 6.98964 68.5187 6.8517C69.5761 6.57444 72.1036 5.70858 71.6843 4.78772C71.2631 3.86281 69.2428 3.60261 68.0846 3.60261Z" fill="url(#paint2_linear_121_42)"/>
<defs>
<linearGradient id="paint0_linear_121_42" x1="90.1329" y1="77.8238" x2="42.7196" y2="126.519" gradientUnits="userSpaceOnUse">
<stop stop-color="#FFB54D"/>
<stop offset="1" stop-color="#FF7D6A"/>
</linearGradient>
<linearGradient id="paint1_linear_121_42" x1="90.1111" y1="53.6396" x2="70.4255" y2="101.535" gradientUnits="userSpaceOnUse">
<stop stop-color="#FF579C"/>
<stop offset="1" stop-color="#C01597"/>
</linearGradient>
<linearGradient id="paint2_linear_121_42" x1="88.6941" y1="15.7977" x2="69.9506" y2="55.7855" gradientUnits="userSpaceOnUse">
<stop stop-color="#4CB7EC"/>
<stop offset="1" stop-color="#5062E8"/>
</linearGradient>
</defs>
</svg>
