<svg width="128" height="128" viewBox="0 0 128 128" fill="none" xmlns="http://www.w3.org/2000/svg">
<rect width="128" height="128" fill="white"/>
<path d="M43.2238 110.319L43.2233 109.711C43.2209 107.076 43.2222 106.35 43.2134 92.9741L84.8871 73.7144C84.9086 96.835 84.9195 110.206 84.9195 110.319C84.9195 110.54 83.9929 110.54 82.8979 111.939C81.8029 113.338 82.2241 114 81.8029 114L46.5089 114C46.2562 114 46.6774 113.264 45.3296 111.939C43.9819 110.613 43.2238 110.54 43.2238 110.319Z" fill="url(#paint0_linear_121_42)"/>
<path d="M84.8708 39.7358L43.2134 58.9958C43.2151 70.0415 43.2213 83.0852 43.2285 93.9831L84.9023 74.7233C84.8901 61.6568 84.8786 48.2221 84.8708 39.7358Z" fill="url(#paint1_linear_121_42)"/>
<path fill-rule="evenodd" clip-rule="evenodd" d="M64.8044 14.287C68.3422 13.4035 75.3277 14.4668 70.2796 18.7782C70.2796 18.7782 83.0831 19.2936 83.2516 19.7353C83.3227 19.9217 83.2798 20.0949 83.2293 20.2993C83.16 20.5794 83.0763 20.9179 83.2516 21.4287C83.4126 21.8979 83.854 22.2218 84.2326 22.4995C84.5668 22.7448 84.8521 22.9541 84.8521 23.1958C84.8521 23.2228 84.8531 24.1501 84.8546 25.6123C84.8591 29.7769 84.8683 38.2803 84.8724 42.6796L43.215 61.9396C43.2124 45.8978 43.2089 23.3343 43.2405 23.1958C43.2748 23.0462 43.5242 22.8698 43.8281 22.6547C44.2721 22.3407 44.8325 21.9443 45.0091 21.4287C45.1663 20.9696 44.9348 20.5657 44.7495 20.2425C44.5843 19.9543 44.4558 19.7301 44.6725 19.5881C45.1322 19.2867 60.0873 18.7782 60.0873 18.7782C60.6005 18.1212 60.963 17.5399 61.2828 17.0268C62.1135 15.6946 62.6567 14.8233 64.8044 14.287ZM67.2811 15.6821C66.3545 15.6821 63.1694 16.1848 62.9167 17.2951C62.6102 18.6419 67.208 18.3917 67.6284 18.2814C68.4743 18.0596 70.4963 17.3669 70.1608 16.6302C69.8239 15.8902 68.2077 15.6821 67.2811 15.6821Z" fill="url(#paint2_linear_121_42)"/>
<defs>
<linearGradient id="paint0_linear_121_42" x1="84.9197" y1="75.0594" x2="46.989" y2="114.016" gradientUnits="userSpaceOnUse">
<stop stop-color="#FFB54D"/>
<stop offset="1" stop-color="#FF7D6A"/>
</linearGradient>
<linearGradient id="paint1_linear_121_42" x1="84.9023" y1="55.7116" x2="69.1538" y2="94.0279" gradientUnits="userSpaceOnUse">
<stop stop-color="#FF579C"/>
<stop offset="1" stop-color="#C01597"/>
</linearGradient>
<linearGradient id="paint2_linear_121_42" x1="83.7686" y1="25.4382" x2="68.7739" y2="57.4284" gradientUnits="userSpaceOnUse">
<stop stop-color="#4CB7EC"/>
<stop offset="1" stop-color="#5062E8"/>
</linearGradient>
</defs>
</svg>
