<svg width="96" height="96" viewBox="0 0 96 96" fill="none" xmlns="http://www.w3.org/2000/svg">
<path d="M28.01 92.5027L28.0095 91.9254C28.0072 89.4222 28.0085 88.7319 28 76.0252L67.9689 57.7284C67.9895 79.693 68 92.3957 68 92.5027C68 92.7125 67.1113 92.7125 66.0611 94.0415C65.0108 95.3705 65.4148 96 65.0108 96H31.1607C30.9183 96 31.3223 95.3005 30.0297 94.0415C28.7371 92.7825 28.01 92.7125 28.01 92.5027Z" fill="url(#paint0_linear_3_47)"/>
<path d="M67.9533 25.4491L28 43.7461C28.0017 54.2394 28.0076 66.631 28.0145 76.984L67.9834 58.6872C67.9718 46.2741 67.9608 33.5111 67.9533 25.4491Z" fill="url(#paint1_linear_3_47)"/>
<path fill-rule="evenodd" clip-rule="evenodd" d="M48.7077 1.27266C52.1008 0.433339 58.8006 1.44351 53.959 5.53929C53.959 5.53929 66.2387 6.02889 66.4003 6.44856C66.4684 6.62559 66.4273 6.79017 66.3789 6.9843C66.3124 7.2504 66.2321 7.57201 66.4003 8.0573C66.5547 8.50305 66.9781 8.81071 67.3411 9.0746C67.6617 9.3076 67.9353 9.5064 67.9353 9.736C67.9353 9.7617 67.9362 10.6428 67.9377 12.032C67.9421 15.9884 67.9509 24.0664 67.9548 28.2456L28.0015 46.5426C27.9991 31.3029 27.9957 9.8675 28.0261 9.736C28.0589 9.5939 28.2981 9.4263 28.5896 9.222C29.0154 8.92367 29.5529 8.5471 29.7222 8.0573C29.8731 7.62109 29.651 7.23743 29.4733 6.93036C29.3148 6.65654 29.1916 6.44363 29.3994 6.30867C29.8404 6.02236 44.1836 5.53928 44.1836 5.53928C44.6758 4.91518 45.0235 4.36287 45.3302 3.8755C46.1269 2.60986 46.6479 1.78218 48.7077 1.27266ZM51.0831 2.59794C50.1944 2.59794 47.1396 3.07547 46.8973 4.13027C46.6033 5.4098 51.013 5.17209 51.4162 5.06725C52.2275 4.85653 54.1668 4.19849 53.845 3.49863C53.5219 2.7957 51.9718 2.59794 51.0831 2.59794Z" fill="url(#paint2_linear_3_47)"/>
<defs>
<linearGradient id="paint0_linear_3_47" x1="68.0002" y1="59.0062" x2="31.9768" y2="96.3575" gradientUnits="userSpaceOnUse">
<stop stop-color="#FFB54D"/>
<stop offset="1" stop-color="#FF7D6A"/>
</linearGradient>
<linearGradient id="paint1_linear_3_47" x1="67.9835" y1="40.626" x2="53.1236" y2="77.1261" gradientUnits="userSpaceOnUse">
<stop stop-color="#FF579C"/>
<stop offset="1" stop-color="#C01597"/>
</linearGradient>
<linearGradient id="paint2_linear_3_47" x1="66.8962" y1="11.8663" x2="52.738" y2="42.3606" gradientUnits="userSpaceOnUse">
<stop stop-color="#4CB7EC"/>
<stop offset="1" stop-color="#5062E8"/>
</linearGradient>
</defs>
</svg>
