
<svg width="96" height="96" viewBox="0 0 96 96" fill="none" xmlns="http://www.w3.org/2000/svg">
<path d="M26.0101 92.4659L26.0096 91.8825C26.0073 89.3529 26.0086 88.6555 26 75.815L66.3896 57.3256C66.4104 79.5214 66.4211 92.3578 66.4211 92.4659C66.421 92.678 65.523 92.678 64.4617 94.0209C63.4004 95.3639 63.8086 96 63.4004 96L29.194 96C28.9491 96 29.3573 95.2932 28.051 94.0209C26.7448 92.7487 26.0101 92.678 26.0101 92.4659Z" fill="url(#paint0_linear_479_624)"/>
<path d="M66.3738 24.7065L26 43.1961C26.0017 53.7999 26.0077 66.3219 26.0147 76.7839L66.4043 58.2945C66.3926 45.7507 66.3814 32.8534 66.3738 24.7065Z" fill="url(#paint1_linear_479_624)"/>
<path fill-rule="evenodd" clip-rule="evenodd" d="M46.9257 0.275531C50.3545 -0.572627 57.1248 0.448175 52.2322 4.58707C52.2322 4.58707 64.6412 5.08183 64.8045 5.50591C64.8734 5.6848 64.8318 5.85112 64.7829 6.0473C64.7157 6.31619 64.6346 6.64119 64.8045 7.13159C64.9606 7.58203 65.3884 7.89292 65.7552 8.15956C66.0792 8.395 66.3556 8.59593 66.3556 8.82794C66.3556 8.85388 66.3566 9.74301 66.3581 11.1452C66.3625 15.1422 66.3714 23.3082 66.3753 27.5324L26.0015 46.022C25.9991 30.6219 25.9956 8.96089 26.0263 8.82794C26.0595 8.68431 26.3012 8.51496 26.5958 8.30855C27.0261 8.00708 27.5692 7.62655 27.7404 7.13159C27.8928 6.69079 27.6684 6.30309 27.4888 5.99278C27.3287 5.71609 27.2041 5.50093 27.4142 5.36455C27.8597 5.07523 42.354 4.58706 42.354 4.58706C42.8513 3.9564 43.2026 3.39827 43.5127 2.90577C44.3177 1.6268 44.8442 0.790416 46.9257 0.275531ZM49.3261 1.61477C48.428 1.61477 45.3411 2.09732 45.0962 3.16322C44.7991 4.45622 49.2552 4.216 49.6626 4.11006C50.4825 3.89713 52.4422 3.23215 52.1171 2.52493C51.7905 1.8146 50.2241 1.61477 49.3261 1.61477Z" fill="url(#paint2_linear_479_624)"/>
<defs>
<linearGradient id="paint0_linear_479_624" x1="66.4212" y1="58.6168" x2="30.0187" y2="96.3613" gradientUnits="userSpaceOnUse">
<stop stop-color="#FFB54D"/>
<stop offset="1" stop-color="#FF7D6A"/>
</linearGradient>
<linearGradient id="paint1_linear_479_624" x1="66.4043" y1="40.0432" x2="51.3881" y2="76.9275" gradientUnits="userSpaceOnUse">
<stop stop-color="#FF579C"/>
<stop offset="1" stop-color="#FF3333"/>
</linearGradient>
<linearGradient id="paint2_linear_479_624" x1="65.3056" y1="10.9807" x2="50.9984" y2="41.796" gradientUnits="userSpaceOnUse">
<stop stop-color="#4CB7EC"/>
<stop offset="1" stop-color="#5062E8"/>
</linearGradient>
</defs>
</svg>
